<?xml version="1.0" encoding="UTF-8"?>
<svg xmlns="http://www.w3.org/2000/svg" viewBox="0 0 451.02 455.19">
  <defs>
    <style>
      .cls-1 {
        stroke-width: 1.94px;
      }

      .cls-1, .cls-2, .cls-3, .cls-4, .cls-5, .cls-6, .cls-7, .cls-8, .cls-9, .cls-10, .cls-11, .cls-12 {
        stroke-miterlimit: 10;
      }

      .cls-1, .cls-2, .cls-3, .cls-5, .cls-7, .cls-8, .cls-9, .cls-11, .cls-12 {
        stroke: #000;
      }

      .cls-1, .cls-7, .cls-8, .cls-12 {
        fill: #fff;
      }

      .cls-2 {
        stroke-width: 1.91px;
      }

      .cls-3 {
        fill: #00a3cb;
        stroke-width: 4.03px;
      }

      .cls-4 {
        fill: #2a3e98;
      }

      .cls-4, .cls-8, .cls-10 {
        stroke-width: 1.09px;
      }

      .cls-4, .cls-10 {
        stroke: #fff;
      }

      .cls-6 {
        fill: #d02026;
        stroke: #231f20;
        stroke-width: .18px;
      }

      .cls-7, .cls-9 {
        stroke-width: .86px;
      }

      .cls-9, .cls-10 {
        fill: none;
      }

      .cls-11 {
        fill: #fff200;
      }

      .cls-12 {
        stroke-width: 1.01px;
      }
    </style>
  </defs>
  <g id="Layer_3" data-name="Layer 3">
    <ellipse class="cls-3" cx="222.17" cy="217.48" rx="217.48" ry="215.46"/>
  </g>
  <g id="Layer_2" data-name="Layer 2">
    <polygon class="cls-10" points="219.86 7.41 42.71 318.06 45.95 318.11 407.56 323.72 219.86 7.41"/>
    <path class="cls-4" d="m37.58,323.72l5.12-5.66-5.12,5.66Z"/>
    <polygon class="cls-8" points="75.58 260.42 37.58 323.72 407.56 324.33 222.57 4.17 75.58 260.42"/>
    <path class="cls-11" d="m264.79,122.5s1.8,6.67,1.8,5.05l146.83.81-116.78,76.45,42.56,118.92-119.34-76.25-113.25,76.85,41.75-119.53L29.36,125.93h146.43L222.57,4.17l44.02,123.37"/>
    <polygon class="cls-7" points="192.64 119.05 212.79 176.08 156.23 147.9 156.23 214.51 212.79 188.32 186.83 269.9 254.92 269.9 226.94 188.32 285.4 213.97 285.4 147.9 226.94 176.08 248.73 119.05 192.64 119.05"/>
    <rect class="cls-5" x="213.81" y="138.77" width="12.13" height="112.32"/>
    <rect class="cls-2" x="189.94" y="178.51" width="59.87" height="8.22"/>
    <path class="cls-9" d="m254.92,268.54l.46,1.36"/>
    <polygon class="cls-1" points="246.56 344.14 246.56 394.84 236.04 394.84 236.04 363.82 229.7 377.98 229.58 377.98 229.58 378.33 225.95 386.22 217.64 386.22 212.95 378.1 212.95 377.98 203.69 361.95 203.69 394.84 193.16 394.84 193.16 344.14 205.54 344.14 221.2 371.24 233.34 344.14 246.56 344.14"/>
    <polygon class="cls-9" points="203.7 127.95 234.44 127.95 226.94 176.08 274.68 162.13 274.68 199.34 226.94 188.32 237.59 258.8 203.7 258.45 212.79 188.32 170.26 202.38 168.91 164.25 212.79 176.08 203.7 127.95"/>
    <path class="cls-12" d="m427.14,215.79c0,.12,0,.24-.01.36-.2,10.78-9.63,19.47-21.24,19.47s-21.04-8.69-21.24-19.47c0-.12,0-.24,0-.36v-36.38h13.74v36.74h.01c-.01.09-.01.17-.01.26,0,4.15,3.36,7.51,7.51,7.51s7.51-3.36,7.51-7.51c0-.09,0-.17,0-.26h.03v-36.74h13.5v33.51c.14.94.22,1.89.22,2.87Z"/>
    <path class="cls-12" d="m384.65,216.15h0v-.36c0,.12,0,.24,0,.36Z"/>
    <path class="cls-12" d="m62.33,214.89c0,.12,0,.24,0,.36-.2,10.78-9.63,19.47-21.24,19.47s-21.04-8.69-21.24-19.47c-.01-.12-.01-.24-.01-.36v-2.4h13.74v2.76h0c0,.09,0,.17,0,.26,0,4.15,3.36,7.51,7.51,7.51s7.51-3.36,7.51-7.51c0-.09,0-.17-.01-.26h.03v-36.74h13.5v33.51c.14.94.22,1.89.22,2.87Z"/>
    <path class="cls-12" d="m21.47,224.45h0v-.36c0,.12,0,.24,0,.36Z"/>
    <g id="Layer_4" data-name="Layer 4">
      <path class="cls-6" d="m184.06,178.31c.11.98.35,2.67.72,4.57.36,1.87.58,3.05,1.05,4.6.4,1.34,1.03,3.38,2.42,5.83.83,1.46,1.62,2.86,3.19,4.46,2.25,2.29,4.76,3.66,6.11,4.3,1.48.71,1.57.56,3.91,1.61,2.13.96,3.36,1.52,4.84,2.51,1.45.97,3.67,2.46,4.62,4.57.14.31.39.94.47.92.09-.02-.04-.91-.39-1.75-.32-.77-.78-1.37-1.38-2.02-1.32-1.43-2.68-2.39-3.22-2.76-1.95-1.34-2.48-1.32-5.7-3.32-.7-.44-1.32-.84-2.04-1.39-.98-.76-1.64-1.4-2.31-2.06-.25-.24-1.41-1.4-2.39-2.6-2.82-3.45-4.24-7.37-4.29-7.53-.75-2.13-.94-4.14-1.32-8.16-.37-3.94-.19-5.71-.11-6.37.27-2.23.8-3.87,1.21-5.11.32-.97,1.4-4.08,3.74-7.89,1.48-2.4,3.78-6.13,8.04-9.69,1.1-.92,1.92-1.48,3.19-2.78,2.12-2.17,3.3-4.14,4.18-5.65.74-1.25,1.67-2.86,2.42-5.11.66-1.98.92-3.65,1.1-4.84.19-1.22.28-2.27.33-3.05l.8-.65c-.09,13.96-.06,21.92.08,25.16.02.51.1,1.99-.08,3.97-.09.96-.33,3.15-1.16,5.92-.45,1.51-.94,3.17-2.06,5.25-.89,1.65-2.5,4.62-5.78,7.2-.88.69-1.57,1.11-2.64,2.15-1.17,1.14-1.94,2.19-2.89,3.5-1.04,1.43-1.56,2.15-1.9,2.82-1.25,2.5-1.19,4.67-1.16,5.31.08,1.5.49,2.6.83,3.5.3.82.92,2.44,2.31,4.17.99,1.23,2.45,2.32,5.37,4.51,2.43,1.82,2.64,1.82,3.63,2.76,1.92,1.81,2.86,3.4,3.14,3.9.58,1.03.83,1.8,1.32,3.3.88,2.7,1.26,4.87,1.4,5.78.14.87.38,2.56.5,6.26.11,3.34.03,5.8,0,7.2-.14,5.76.01,14.93-.25,14.93-.07,0-.19-1.09-.44-3.26-.13-1.15-.2-1.93-.4-3.23-.08-.5-.14-.85-.23-1.44-.41-2.41-.42-2.18-.66-3.56-.38-2.21-.53-2.75-.77-3.39-.31-.82-.64-1.41-.71-1.54-.44-.78-1.18-2.09-2.76-3.34-1.34-1.05-2.66-1.58-3.14-1.76-1.27-.47-1.39-.28-4.4-.95-2.04-.46-3.08-.7-4.13-1.21-.56-.27-1.46-.78-2.17-1.19-.07-.04-.83-.48-1.32-.81-.4-.26-1.61-1.09-3.06-2.62-.68-.72-1.9-2.1-3.06-4.1-1.48-2.55-2.03-4.68-2.48-6.46-.32-1.28-.65-2.9-.91-5.78-.3-3.31-.24-5.19-.25-9.35-.02-6.01-.16-5.27-.17-11.37,0-3.35.04-6.01.08-8.74.05-3.14.11-5.8.17-7.8.19-.05.07,6.26.94,13.7Z"/>
    </g>
  </g>
</svg>